<svg width="331" height="262" viewBox="0 0 331 262" fill="none" xmlns="http://www.w3.org/2000/svg">
<path d="M327.09 197.377C328.572 197.377 329.774 196.173 329.774 194.689C329.774 193.204 328.572 192 327.09 192C325.608 192 324.406 193.204 324.406 194.689C324.406 196.173 325.608 197.377 327.09 197.377Z" fill="#EC2027"/>
<path d="M327.09 5.37705C328.572 5.37705 329.774 4.17336 329.774 2.68852C329.774 1.20369 328.572 0 327.09 0C325.608 0 324.406 1.20369 324.406 2.68852C324.406 4.17336 325.608 5.37705 327.09 5.37705Z" fill="#EC2027"/>
<path d="M327.09 69.9015C328.572 69.9015 329.774 68.6978 329.774 67.2129C329.774 65.7281 328.572 64.5244 327.09 64.5244C325.608 64.5244 324.406 65.7281 324.406 67.2129C324.406 68.6978 325.608 69.9015 327.09 69.9015Z" fill="#EC2027"/>
<path d="M262.684 5.37705C264.166 5.37705 265.368 4.17336 265.368 2.68852C265.368 1.20369 264.166 0 262.684 0C261.202 0 260 1.20369 260 2.68852C260 4.17336 261.202 5.37705 262.684 5.37705Z" fill="white"/>
<path d="M327.09 134.426C328.572 134.426 329.774 133.222 329.774 131.737C329.774 130.253 328.572 129.049 327.09 129.049C325.608 129.049 324.406 130.253 324.406 131.737C324.406 133.222 325.608 134.426 327.09 134.426Z" fill="#EC2027"/>
<path d="M262.684 197.377C264.166 197.377 265.368 196.173 265.368 194.689C265.368 193.204 264.166 192 262.684 192C261.202 192 260 193.204 260 194.689C260 196.173 261.202 197.377 262.684 197.377Z" fill="white"/>
<path d="M198.27 197.377C199.752 197.377 200.953 196.173 200.953 194.689C200.953 193.204 199.752 192 198.27 192C196.788 192 195.586 193.204 195.586 194.689C195.586 196.173 196.788 197.377 198.27 197.377Z" fill="#EC2027"/>
<path d="M133.86 197.377C135.342 197.377 136.543 196.173 136.543 194.689C136.543 193.204 135.342 192 133.86 192C132.377 192 131.176 193.204 131.176 194.689C131.176 196.173 132.377 197.377 133.86 197.377Z" fill="white"/>
<path d="M69.4494 197.377C70.9316 197.377 72.1332 196.173 72.1332 194.689C72.1332 193.204 70.9316 192 69.4494 192C67.9672 192 66.7656 193.204 66.7656 194.689C66.7656 196.173 67.9672 197.377 69.4494 197.377Z" fill="#EC2027"/>
<path d="M262.684 69.9015C264.166 69.9015 265.368 68.6978 265.368 67.2129C265.368 65.7281 264.166 64.5244 262.684 64.5244C261.202 64.5244 260 65.7281 260 67.2129C260 68.6978 261.202 69.9015 262.684 69.9015Z" fill="white"/>
<path d="M262.684 134.426C264.166 134.426 265.368 133.222 265.368 131.737C265.368 130.253 264.166 129.049 262.684 129.049C261.202 129.049 260 130.253 260 131.737C260 133.222 261.202 134.426 262.684 134.426Z" fill="white"/>
<path d="M198.27 69.9015C199.752 69.9015 200.953 68.6978 200.953 67.2129C200.953 65.7281 199.752 64.5244 198.27 64.5244C196.788 64.5244 195.586 65.7281 195.586 67.2129C195.586 68.6978 196.788 69.9015 198.27 69.9015Z" fill="#EC2027"/>
<path d="M198.27 134.426C199.752 134.426 200.953 133.222 200.953 131.737C200.953 130.253 199.752 129.049 198.27 129.049C196.788 129.049 195.586 130.253 195.586 131.737C195.586 133.222 196.788 134.426 198.27 134.426Z" fill="#EC2027"/>
<path d="M133.86 134.426C135.342 134.426 136.543 133.222 136.543 131.737C136.543 130.253 135.342 129.049 133.86 129.049C132.377 129.049 131.176 130.253 131.176 131.737C131.176 133.222 132.377 134.426 133.86 134.426Z" fill="white"/>
<path d="M2.68378 261.901C4.16599 261.901 5.36755 260.698 5.36755 259.213C5.36755 257.728 4.16599 256.524 2.68378 256.524C1.20157 256.524 0 257.728 0 259.213C0 260.698 1.20157 261.901 2.68378 261.901Z" fill="white"/>
<path d="M262.684 261.901C264.166 261.901 265.368 260.698 265.368 259.213C265.368 257.728 264.166 256.524 262.684 256.524C261.202 256.524 260 257.728 260 259.213C260 260.698 261.202 261.901 262.684 261.901Z" fill="white"/>
<path d="M327.684 261.901C329.166 261.901 330.368 260.698 330.368 259.213C330.368 257.728 329.166 256.524 327.684 256.524C326.202 256.524 325 257.728 325 259.213C325 260.698 326.202 261.901 327.684 261.901Z" fill="#EC2027"/>
<path d="M198.27 261.901C199.752 261.901 200.953 260.698 200.953 259.213C200.953 257.728 199.752 256.524 198.27 256.524C196.788 256.524 195.586 257.728 195.586 259.213C195.586 260.698 196.788 261.901 198.27 261.901Z" fill="#EC2027"/>
<path d="M133.863 261.901C135.346 261.901 136.547 260.698 136.547 259.213C136.547 257.728 135.346 256.524 133.863 256.524C132.381 256.524 131.18 257.728 131.18 259.213C131.18 260.698 132.381 261.901 133.863 261.901Z" fill="white"/>
<path d="M69.4494 261.901C70.9316 261.901 72.1332 260.698 72.1332 259.213C72.1332 257.728 70.9316 256.524 69.4494 256.524C67.9672 256.524 66.7656 257.728 66.7656 259.213C66.7656 260.698 67.9672 261.901 69.4494 261.901Z" fill="#EC2027"/>
</svg>
