<svg width="30" height="29" viewBox="0 0 30 29" fill="none" xmlns="http://www.w3.org/2000/svg">
<path d="M20.0203 29V16.9435H23.6177C23.7664 15.3359 23.9132 13.7553 24.064 12.1287H20.1964C20.1964 11.8843 20.1964 11.681 20.1964 11.4776C20.1964 11.0379 20.1913 10.5992 20.1994 10.1595C20.2136 9.39226 20.5809 9.02867 21.349 9.02266C22.115 9.01665 22.88 9.02166 23.646 9.02166C23.7543 9.02166 23.8616 9.02166 23.987 9.02166V4.90499C23.9385 4.89597 23.897 4.88295 23.8555 4.88295C22.5238 4.88095 21.1911 4.84589 19.8614 4.88696C18.3314 4.93403 16.9916 5.43685 16.0617 6.72193C15.3564 7.69651 15.1206 8.81432 15.1034 9.98822C15.0953 10.5702 15.1014 11.1521 15.1014 11.7341C15.1014 11.8422 15.1014 11.9514 15.1014 12.0976H12.7092V16.9295H15.1115V28.983C14.9992 28.988 14.8828 28.998 14.7664 28.998C11.3714 28.998 7.97543 29.001 4.58044 28.998C2.3107 28.996 0.701749 27.4065 0.700737 25.1628C0.698713 18.0563 0.698713 10.9508 0.700737 3.84427C0.700737 1.59462 2.30564 0.00103921 4.57133 3.75911e-05C11.7509 -0.00196566 18.9295 -0.00196566 26.109 3.75911e-05C28.398 3.75911e-05 29.9968 1.58761 29.9968 3.85929C29.9989 10.9548 29.9989 18.0493 29.9968 25.1448C29.9968 27.4145 28.395 28.996 26.102 28.998C24.1935 29 22.285 28.998 20.3765 28.998H20.0213L20.0203 29Z" fill="white"/>
</svg>
