<svg width="31" height="29" viewBox="0 0 31 29" fill="none" xmlns="http://www.w3.org/2000/svg">
<path d="M7.86037 0C12.8947 0 17.929 0 22.9623 0C23.0361 0.0170276 23.108 0.0390633 23.1829 0.0500812C26.3714 0.500812 28.5268 2.23162 29.6399 5.21044C29.8555 5.78638 29.9212 6.4164 30.0558 7.02138V21.9696C30.0376 22.0517 30.0123 22.1329 30.0032 22.216C29.5934 25.9781 26.3188 28.9599 22.4958 28.982C17.7681 29.01 13.0394 29.005 8.31169 28.972C7.57197 28.9669 6.80595 28.8227 6.10064 28.5963C2.86249 27.5537 0.772879 24.666 0.768832 21.2975C0.76276 16.7682 0.766808 12.2388 0.768832 7.7105C0.768832 7.41902 0.788055 7.12555 0.816389 6.83508C1.10883 3.83121 3.32393 1.1719 6.24535 0.340552C6.77256 0.189307 7.32102 0.11118 7.86037 0ZM24.9072 14.5105C24.9072 13.1042 24.9092 11.699 24.9072 10.2927C24.9031 7.33689 22.6455 5.09926 19.6594 5.09726C16.828 5.09426 13.9967 5.09426 11.1653 5.09726C8.18014 5.10027 5.91849 7.33789 5.91546 10.2907C5.91343 13.0932 5.91343 15.8958 5.91546 18.6983C5.91748 21.6521 8.17811 23.8917 11.1633 23.8947C13.9946 23.8977 16.826 23.8977 19.6573 23.8947C22.6445 23.8917 24.9031 21.6551 24.9072 18.7003C24.9092 17.304 24.9072 15.9068 24.9072 14.5105Z" fill="white"/>
<path d="M23.1901 14.4954C23.1901 15.9007 23.1921 17.307 23.1901 18.7123C23.1871 20.7105 21.6864 22.1939 19.6626 22.1959C16.8221 22.1979 13.9826 22.1989 11.1422 22.1959C9.1396 22.1939 7.63285 20.7045 7.63082 18.7263C7.6288 15.9057 7.62779 13.0852 7.63082 10.2646C7.63285 8.28638 9.1396 6.79797 11.1432 6.79596C13.9928 6.79396 16.8423 6.79296 19.6919 6.79596C21.6773 6.79797 23.184 8.28838 23.1891 10.2506C23.1921 11.6659 23.1891 13.0801 23.1891 14.4954H23.1901ZM15.3943 18.7423C17.7601 18.7473 19.6949 16.8473 19.701 14.5115C19.7071 12.1697 17.7875 10.2546 15.4267 10.2496C13.0598 10.2446 11.126 12.1436 11.1209 14.4794C11.1159 16.8212 13.0365 18.7373 15.3953 18.7423H15.3943ZM20.3193 10.4739C20.7828 10.4799 21.1774 10.1023 21.1875 9.64358C21.1976 9.18584 20.8192 8.7912 20.3557 8.77717C19.8821 8.76315 19.4754 9.15178 19.4733 9.62154C19.4713 10.0803 19.8548 10.4679 20.3193 10.4739Z" fill="white"/>
<path d="M17.9865 14.5045C17.9824 15.9128 16.8167 17.0537 15.3899 17.0437C13.9813 17.0336 12.8358 15.8848 12.8399 14.4875C12.8439 13.0802 14.0106 11.9394 15.4364 11.9494C16.846 11.9594 17.9905 13.1053 17.9865 14.5055V14.5045Z" fill="white"/>
</svg>
