<svg width="29" height="28" viewBox="0 0 29 28" fill="none" xmlns="http://www.w3.org/2000/svg">
<path d="M-0.00390625 24.6295C-0.00390625 17.5971 -0.00390625 10.5647 -0.00390625 3.53134C0.0153202 3.45421 0.0385944 3.37809 0.0527613 3.29896C0.370504 1.50205 1.94708 0.164881 3.79484 0.162878C10.6415 0.156868 17.4882 0.154865 24.3348 0.162878C26.4113 0.165883 28.1153 1.84861 28.1184 3.90494C28.1285 10.6909 28.1265 17.4769 28.1184 24.2629C28.1164 25.9156 26.981 27.375 25.3791 27.8397C25.1615 27.9028 24.9379 27.9469 24.7163 28.001H3.40222C3.35061 27.985 3.30001 27.9629 3.24739 27.9539C1.64957 27.6584 0.616401 26.7349 0.133715 25.2055C0.0740116 25.0162 0.0416302 24.8208 -0.00390625 24.6295ZM14.9776 12.4618C14.9776 12.2294 14.9806 11.9971 14.9776 11.7647C14.9695 11.325 14.7782 11.1297 14.3421 11.1276C13.5275 11.1236 12.7129 11.1236 11.8983 11.1276C11.4541 11.1297 11.2598 11.322 11.2598 11.7577C11.2588 15.2183 11.2588 18.6789 11.2598 22.1395C11.2598 22.5842 11.4632 22.7795 11.9196 22.7815C12.6704 22.7835 13.4202 22.7815 14.1711 22.7815C14.8136 22.7815 14.9664 22.6313 14.9675 22.0003C14.9675 20.2605 14.9644 18.5216 14.9695 16.7818C14.9715 16.1177 15.1172 15.4867 15.4906 14.9248C15.945 14.2397 16.6108 14.0304 17.3991 14.1365C18.1206 14.2337 18.6043 14.6564 18.7703 15.3345C18.9109 15.9074 18.9726 16.5114 18.9817 17.1023C19.0081 18.778 18.9868 20.4538 18.9888 22.1295C18.9888 22.5842 19.1851 22.7735 19.6425 22.7755C20.4662 22.7775 21.2899 22.7775 22.1136 22.7755C22.6004 22.7755 22.7947 22.5822 22.7947 22.0974C22.7947 20.1953 22.8159 18.2923 22.7764 16.3902C22.7603 15.5989 22.6753 14.7956 22.5073 14.0223C22.1956 12.592 21.4012 11.5223 19.8996 11.1307C19.4624 11.0165 18.9989 10.9594 18.5456 10.9514C17.1492 10.9273 15.8903 11.2508 14.9806 12.4618H14.9776ZM5.87232 16.9641C5.87232 18.6669 5.87232 20.3696 5.87232 22.0734C5.87232 22.5702 6.08785 22.7795 6.59483 22.7805C7.34567 22.7815 8.09551 22.7815 8.84635 22.7805C9.36749 22.7805 9.58505 22.5722 9.58606 22.0594C9.58809 18.6538 9.58809 15.2473 9.58606 11.8418C9.58606 11.325 9.37558 11.1236 8.84635 11.1216C8.10461 11.1186 7.36389 11.1186 6.62215 11.1216C6.06661 11.1236 5.87232 11.323 5.87232 11.8829C5.87232 13.5766 5.87232 15.2704 5.87232 16.9641ZM10.1183 7.7642C10.1305 6.4701 9.07606 5.39736 7.77371 5.38033C6.43798 5.3623 5.34106 6.41501 5.32891 7.72614C5.31677 9.03325 6.37929 10.109 7.69377 10.119C9.04064 10.13 10.1062 9.09536 10.1183 7.7642Z" fill="white"/>
</svg>
