<svg width="700" height="361" viewBox="0 0 700 361" fill="none" xmlns="http://www.w3.org/2000/svg">
<path d="M446.751 102.666L446.76 102.666C446.775 102.667 446.789 102.663 446.802 102.657L446.809 102.653C448.013 102.043 449.249 101.499 450.512 101.024C451.765 100.548 453.063 100.087 454.325 99.7171L454.222 99.732L454.241 99.7325C454.272 99.7334 454.304 99.7294 454.334 99.7204L454.359 99.7127C461.028 97.6208 467.953 96.4545 474.939 96.2465C478.421 96.1433 481.906 96.2544 485.374 96.5792L495.886 97.4673C502.897 98.0329 509.921 98.4372 516.941 98.8841C523.963 99.3096 530.982 99.771 537.991 100.355L537.841 99.8178C536.601 100.719 535.466 101.757 534.459 102.913C533.462 104.082 532.612 105.37 531.929 106.746C531.268 108.131 530.744 109.578 530.365 111.065C530.005 112.556 529.775 114.075 529.675 115.605C529.505 118.663 529.711 121.73 530.288 124.737C530.834 127.758 531.69 130.715 532.844 133.56L533.679 132.485C528.747 131.554 523.817 130.614 518.879 129.718L504.071 127L504.88 127.729L504.773 127.411L504.805 127.497C504.089 125.231 502.613 123.28 500.627 121.974C498.653 120.671 496.311 120.039 493.95 120.171C491.578 120.324 489.328 121.275 487.566 122.87C487.336 123.054 487.128 123.265 486.947 123.498L486.375 124.17C486.032 124.644 485.715 125.137 485.427 125.646C485.153 126.151 484.966 126.67 484.734 127.182C484.625 127.44 484.507 127.695 484.408 127.954L484.163 128.748C482.985 132.946 482.532 137.314 482.824 141.664C483.018 145.955 483.62 150.219 484.622 154.396L485.363 153.653L475.408 151.571L465.433 149.577C465.408 149.572 465.382 149.577 465.36 149.591C465.338 149.605 465.323 149.626 465.318 149.651C465.312 149.676 465.316 149.702 465.329 149.724C465.343 149.746 465.364 149.762 465.389 149.768L475.227 152.349L485.083 154.855C485.182 154.88 485.286 154.88 485.385 154.854C485.484 154.829 485.575 154.779 485.65 154.709C485.724 154.639 485.78 154.551 485.812 154.454C485.844 154.356 485.85 154.253 485.831 154.152L485.824 154.112C485.028 149.99 484.574 145.809 484.465 141.612C484.286 137.47 484.813 133.327 486.023 129.361L486.256 128.637C486.349 128.403 486.459 128.178 486.559 127.948C486.772 127.498 486.95 127.014 487.187 126.592C487.455 126.2 487.666 125.763 487.97 125.402L488.437 124.869C488.58 124.682 488.749 124.514 488.937 124.372C490.364 123.115 492.173 122.375 494.072 122.273C495.98 122.163 497.873 122.671 499.47 123.72C501.061 124.769 502.251 126.325 502.849 128.134L502.882 128.221C502.887 128.246 502.894 128.27 502.904 128.293L502.97 128.443C503.037 128.593 503.14 128.725 503.27 128.826C503.399 128.927 503.552 128.994 503.714 129.023L518.558 131.536C523.505 132.384 528.459 133.188 533.412 134.001C533.549 134.023 533.69 134.008 533.82 133.957C533.949 133.907 534.063 133.822 534.149 133.712C534.234 133.602 534.288 133.471 534.305 133.332C534.323 133.194 534.302 133.054 534.247 132.926C533.07 130.207 532.152 127.382 531.505 124.49C530.833 121.594 530.531 118.624 530.606 115.652C530.654 114.17 530.83 112.696 531.131 111.244C531.45 109.798 531.929 108.392 532.559 107.052C533.202 105.719 534.006 104.47 534.953 103.332C535.914 102.203 537 101.185 538.189 100.299L538.198 100.293C538.245 100.256 538.28 100.206 538.298 100.149C538.317 100.092 538.317 100.031 538.3 99.9735C538.283 99.9161 538.249 99.8652 538.202 99.8276C538.156 99.7899 538.099 99.7671 538.04 99.7623C531.029 99.1928 524.029 98.5052 517.032 97.7738C510.034 97.0651 503.039 96.3138 496.03 95.7237L485.514 94.8785C481.975 94.5765 478.419 94.5221 474.871 94.7155C471.326 94.9119 467.8 95.3751 464.324 96.1013C460.851 96.804 457.44 97.783 454.123 99.0289L454.241 99.0092L454.222 99.0097L454.195 99.0105C454.169 99.0113 454.144 99.0161 454.12 99.0246C452.805 99.4941 451.575 100.016 450.324 100.575C449.079 101.131 447.872 101.768 446.711 102.482L446.76 102.469L446.751 102.469C446.725 102.47 446.701 102.481 446.684 102.499C446.666 102.518 446.656 102.542 446.656 102.568C446.656 102.593 446.666 102.617 446.684 102.636C446.701 102.654 446.725 102.665 446.751 102.666L446.751 102.666Z" fill="url(#paint0_linear_23_246)"/>
<path d="M403.763 128.866C404.323 126.06 405.447 123.396 407.068 121.037C407.876 119.906 408.806 118.867 409.841 117.939C410.889 117.023 412.013 116.198 413.199 115.47C415.637 114.045 418.238 112.919 420.945 112.118C423.691 111.286 426.499 110.675 429.341 110.289L429.396 110.284C430.368 110.013 431.336 109.724 432.301 109.416C431.289 109.466 430.281 109.538 429.277 109.627L429.331 109.621C426.363 109.492 423.391 109.775 420.5 110.462C417.564 111.123 414.756 112.258 412.185 113.823C409.564 115.402 407.382 117.615 405.84 120.258C404.356 122.877 403.637 125.859 403.763 128.866Z" fill="url(#paint1_linear_23_246)"/>
<path d="M496.812 120.772C495.1 120.109 493.369 119.532 491.626 119.009C489.885 118.479 488.134 117.989 486.374 117.54C484.62 117.067 482.846 116.681 481.079 116.264C479.303 115.892 477.53 115.502 475.74 115.189L475.326 115.116L475.066 115.315C474.332 115.882 473.655 116.519 473.044 117.216C472.438 117.88 471.881 118.588 471.377 119.333C470.873 120.068 470.42 120.838 470.022 121.637C469.622 122.427 469.283 123.247 469.009 124.09C469.521 123.372 470.049 122.677 470.593 122.006C471.144 121.335 471.7 120.666 472.28 120.059C472.872 119.443 473.477 118.848 474.107 118.287C474.721 117.746 475.365 117.24 476.035 116.769L475.362 116.895C477.116 117.366 478.888 117.76 480.654 118.178C482.431 118.551 484.201 118.954 485.99 119.27C487.773 119.613 489.566 119.912 491.368 120.168C493.169 120.434 494.981 120.646 496.812 120.772Z" fill="url(#paint2_linear_23_246)"/>
<path d="M521.734 98.7195C519.636 100.66 517.984 103.034 516.895 105.677C515.755 108.319 515.037 111.123 514.764 113.988C514.537 116.845 514.712 119.72 515.285 122.529C515.354 122.878 515.407 123.23 515.49 123.575L515.783 124.601L516.399 126.634C516.896 127.96 517.478 129.252 518.087 130.513C517.889 129.107 517.561 127.758 517.333 126.394L517.045 124.343L516.886 123.326C516.843 122.987 516.83 122.643 516.801 122.302C516.754 121.618 516.699 120.939 516.627 120.262C516.577 119.583 516.603 118.901 516.587 118.222C516.556 116.868 516.601 115.514 516.72 114.164C516.969 111.467 517.506 108.803 518.322 106.22C519.144 103.588 520.29 101.068 521.734 98.7195Z" fill="url(#paint3_linear_23_246)"/>
<path d="M468.476 119.164C467.007 118.616 465.53 118.077 464.043 117.566C464.125 118.173 464.169 118.784 464.173 119.397C465.446 119.796 466.729 120.177 468.02 120.549C468.894 120.8 469.767 121.051 470.65 121.302C470.771 121.116 470.892 120.939 471.013 120.772C471.133 120.595 471.263 120.428 471.375 120.27C470.409 119.889 469.442 119.527 468.476 119.164Z" fill="url(#paint4_linear_23_246)"/>
<path d="M453.831 116.023C454.964 116.414 456.08 116.804 457.213 117.185H457.223C457.576 116.626 457.987 116.106 458.449 115.633L458.031 115.494C456.777 115.085 455.522 114.676 454.267 114.276C454.119 114.908 453.961 115.494 453.831 116.023Z" fill="url(#paint5_linear_23_246)"/>
<path d="M460.215 109.9C458.347 109.295 456.479 108.691 454.602 108.106C454.805 108.73 454.902 109.383 454.89 110.039C456.46 110.596 458.049 111.126 459.629 111.665C463.133 112.808 466.655 113.933 470.204 114.945C471.849 115.429 473.503 115.89 475.167 116.33C477.081 116.841 478.995 117.324 480.938 117.743C480.166 117.399 479.395 117.055 478.614 116.72C478.605 116.72 478.605 116.72 478.596 116.711C475.975 115.596 473.317 114.564 470.66 113.57C467.203 112.269 463.709 111.08 460.215 109.9Z" fill="url(#paint6_linear_23_246)"/>
<path d="M445.599 106.61C445.757 106.675 445.915 106.74 446.073 106.796C446.479 106.456 446.937 106.183 447.43 105.987C446.928 105.848 446.426 105.708 445.924 105.569C445.803 105.959 445.692 106.312 445.599 106.61Z" fill="url(#paint7_linear_23_246)"/>
<path d="M533.545 133.239C554.525 114.091 538.013 100.062 538.013 100.062C523.35 110.68 533.545 133.239 533.545 133.239Z" fill="url(#paint8_linear_23_246)"/>
<path d="M485.224 154.25C502.536 159.414 503.891 128.01 503.891 128.01C503.87 127.945 503.85 127.881 503.829 127.818C501.226 119.822 490.069 118.788 486.22 126.264C481.004 136.395 485.224 154.25 485.224 154.25Z" fill="url(#paint9_linear_23_246)"/>
<path d="M472.168 150.5C475.035 157.565 477.969 164.557 480.668 171.614C483.427 178.584 485.751 185.718 487.629 192.975C488.072 194.756 488.412 196.561 488.648 198.381C488.904 200.143 488.896 201.933 488.624 203.692C488.481 204.52 488.2 205.318 487.793 206.052C487.378 206.75 486.802 207.339 486.114 207.77C484.543 208.567 482.757 208.834 481.021 208.532C477.335 207.893 473.789 206.615 470.542 204.758C469.717 204.301 468.891 203.85 468.077 203.373L465.669 201.875C464.044 200.911 462.521 199.783 460.963 198.724C459.41 197.654 457.933 196.475 456.418 195.36L454.219 193.587C453.487 192.997 452.734 192.435 452.028 191.813C450.608 190.579 449.13 189.421 447.749 188.146L445.645 186.277L443.594 184.349C440.871 181.769 438.251 179.086 435.735 176.302C433.201 173.539 430.769 170.684 428.395 167.781C423.635 161.961 419.202 155.881 415.118 149.568C413.069 146.406 411.103 143.184 409.22 139.904C407.334 136.627 405.529 133.288 403.885 129.866L403.515 129.998C405.739 137.344 408.736 144.434 412.457 151.147C416.13 157.913 420.369 164.356 425.129 170.406C429.94 176.433 435.281 182.017 441.089 187.091L443.269 188.986L445.51 190.809C446.994 192.034 448.548 193.174 450.101 194.309C451.656 195.44 453.272 196.49 454.872 197.55C456.521 198.544 458.125 199.596 459.801 200.534C461.474 201.475 463.125 202.445 464.832 203.316C466.523 204.211 468.21 205.112 469.939 205.948C473.381 207.727 477.053 209.021 480.85 209.795C482.875 210.222 484.983 210.01 486.881 209.187C487.862 208.695 488.71 207.976 489.355 207.088C489.961 206.211 490.424 205.243 490.727 204.22C491.263 202.259 491.498 200.228 491.424 198.196C491.371 196.226 491.173 194.262 490.833 192.321C490.139 188.506 489.121 184.757 487.791 181.114C486.516 177.48 485.059 173.928 483.478 170.44C482.703 168.689 481.861 166.97 481.013 165.256C480.172 163.539 479.286 161.845 478.373 160.166C476.554 156.806 474.637 153.5 472.514 150.314L472.168 150.5Z" fill="url(#paint10_linear_23_246)"/>
<path d="M518.352 104.132C513 103.327 507.634 102.715 502.263 102.171C496.892 101.614 491.513 101.173 486.133 100.753C480.75 100.37 475.365 100.012 469.971 99.7679C464.579 99.5114 459.181 99.3246 453.769 99.3324C459.12 100.14 464.487 100.753 469.858 101.297C475.228 101.853 480.607 102.294 485.988 102.711C491.371 103.092 496.756 103.45 502.149 103.694C507.542 103.95 512.94 104.138 518.352 104.132Z" fill="url(#paint11_linear_23_246)"/>
<path d="M452.623 194.286C453.392 187.461 454.133 180.625 454.795 173.782L455.049 171.216L455.176 169.933C455.189 169.833 455.193 169.703 455.213 169.627C455.236 169.566 455.255 169.504 455.269 169.441C455.333 169.269 455.407 169.101 455.488 168.937C456.247 167.5 457.242 166.063 458.165 164.628C460.049 161.756 461.867 158.812 463.491 155.747C464.295 154.209 465.052 152.641 465.714 151.023C466.369 149.384 466.918 147.752 467.486 146.141C468.628 142.906 469.76 139.668 470.849 136.415L472.503 131.542L472.916 130.324C473.077 129.863 473.185 129.385 473.238 128.9C473.353 127.912 473.214 126.912 472.834 125.993C472.455 125.015 471.735 124.208 470.807 123.72C469.848 123.299 468.765 123.255 467.774 123.599C466.072 124.237 464.518 125.218 463.209 126.481L464.231 127.055C464.467 125.397 464.619 123.729 464.685 122.057C464.717 121.222 464.722 120.378 464.689 119.543C464.618 118.7 464.584 117.844 464.442 117.008C464.32 116.118 464.002 115.266 463.512 114.513C463.219 114.09 462.787 113.783 462.291 113.647C461.815 113.549 461.322 113.576 460.86 113.726C459.191 114.293 457.79 115.457 456.926 116.994L457.223 116.832H457.214L457.021 116.833L456.919 116.991C456.348 117.906 455.832 118.853 455.372 119.829C455.158 120.292 454.908 120.738 454.623 121.162C454.447 121.37 454.449 121.367 454.199 121.382C454.121 121.39 454.042 121.374 453.973 121.335C453.904 121.297 453.848 121.239 453.813 121.168C453.64 120.723 453.57 120.244 453.61 119.768C453.623 119.246 453.664 118.726 453.733 118.208C453.866 117.162 454.072 116.126 454.349 115.109C454.632 114.073 454.86 113.022 455.032 111.962C455.227 110.878 455.242 109.769 455.076 108.68C454.972 108.115 454.763 107.576 454.458 107.089C454.138 106.597 453.702 106.191 453.187 105.909C452.172 105.412 451.042 105.194 449.915 105.278L449.973 105.281C449.492 105.234 449.007 105.25 448.53 105.328C448.059 105.404 447.597 105.535 447.155 105.717C446.262 106.091 445.487 106.703 444.915 107.485L444.951 107.443C444.877 107.522 444.834 107.625 444.829 107.733L444.836 109.317L445.563 107.907L445.573 107.889L445.582 107.871L445.597 107.827C446.899 104.377 447.775 100.782 448.208 97.12C448.3 96.1714 448.287 95.2155 448.17 94.2697C448.082 93.2151 447.625 92.2252 446.879 91.4742C446.444 91.0975 445.912 90.8503 445.343 90.7605C444.792 90.6961 444.234 90.753 443.707 90.9272C442.766 91.28 441.906 91.8195 441.179 92.5132C439.813 93.8112 438.613 95.2728 437.605 96.8649C436.589 98.4118 435.656 100.011 434.809 101.656C433.045 104.919 431.653 108.369 430.659 111.943C429.712 115.481 428.818 118.987 427.603 122.37C426.378 125.711 424.9 129.073 422.548 131.51C421.457 132.705 419.995 133.498 418.398 133.759C417.577 133.845 416.749 133.811 415.938 133.659C415.075 133.54 414.22 133.365 413.379 133.134C411.692 132.677 410.065 132.022 408.533 131.181C407.018 130.353 405.618 129.329 404.369 128.137L403.366 127.14L402.832 128.359C402.252 129.729 401.9 131.183 401.79 132.666C401.669 134.104 401.721 135.55 401.943 136.976C402.416 139.796 403.436 142.496 404.947 144.924C405.697 146.157 406.61 147.284 407.66 148.273C408.729 149.223 409.896 150.055 411.142 150.756C412.368 151.445 413.625 152.017 414.776 152.659C415.9 153.203 416.862 154.033 417.565 155.065C418.151 156.184 418.461 157.427 418.469 158.69C418.559 160.034 418.61 161.389 418.626 162.749C418.66 165.468 418.608 168.196 418.511 170.922C418.406 173.649 418.3 176.377 418.123 179.102C417.93 181.822 417.78 184.561 417.322 187.241L417.503 187.283C418.087 184.593 418.357 181.868 418.673 179.149C418.961 176.427 419.224 173.701 419.404 170.968C419.585 168.235 419.722 165.498 419.773 162.751C419.799 161.377 419.788 159.998 419.74 158.613C419.764 157.136 419.43 155.674 418.767 154.353C417.961 153.094 416.837 152.068 415.51 151.38C414.286 150.669 413.061 150.084 411.916 149.411C410.79 148.75 409.738 147.971 408.777 147.087C407.853 146.182 407.056 145.156 406.406 144.038C405.063 141.785 404.171 139.292 403.782 136.699C403.587 135.42 403.545 134.124 403.658 132.836C403.757 131.588 404.05 130.364 404.524 129.206L402.987 129.428C405.758 132.091 409.158 134.008 412.87 135.003C413.787 135.258 414.719 135.453 415.661 135.587C416.142 135.639 416.583 135.73 417.098 135.749L417.871 135.772C418.129 135.757 418.388 135.727 418.647 135.702C420.686 135.4 422.557 134.404 423.946 132.881C426.651 129.992 428.093 126.453 429.341 122.983C430.555 119.484 431.426 115.902 432.328 112.388C432.557 111.512 432.787 110.64 433.064 109.814C433.346 108.972 433.665 108.132 433.998 107.298C434.665 105.628 435.401 103.979 436.204 102.367C436.997 100.754 437.875 99.184 438.833 97.6636C439.754 96.1559 440.848 94.7612 442.093 93.5082C442.671 92.9209 443.359 92.4539 444.118 92.1342C444.456 92.0112 444.816 91.9606 445.175 91.9856C445.512 92.0308 445.831 92.1677 446.096 92.3815C446.645 92.9371 446.986 93.665 447.061 94.4426C447.191 95.305 447.226 96.1791 447.166 97.0491C446.828 100.648 446.052 104.193 444.855 107.604L444.879 107.542L444.87 107.561L445.604 107.735C445.605 107.782 445.596 107.829 445.579 107.873C445.561 107.916 445.534 107.956 445.5 107.989L445.537 107.947C446.012 107.256 446.669 106.71 447.435 106.368C448.205 106.03 449.045 105.887 449.883 105.951L449.92 105.954L449.942 105.953C450.948 105.866 451.959 106.046 452.874 106.475C453.298 106.717 453.662 107.052 453.938 107.455C454.215 107.857 454.396 108.318 454.469 108.8C454.63 109.82 454.623 110.86 454.448 111.877C454.287 112.921 454.072 113.956 453.803 114.977C453.519 116.015 453.3 117.069 453.147 118.133C453.07 118.671 453.021 119.212 453.001 119.755C452.946 120.343 453.037 120.936 453.268 121.48C453.363 121.639 453.495 121.771 453.654 121.865C453.812 121.96 453.992 122.014 454.176 122.022C454.361 122.03 454.544 121.993 454.711 121.913C454.877 121.833 455.021 121.714 455.13 121.565C455.449 121.111 455.729 120.631 455.967 120.13C456.427 119.184 456.941 118.266 457.508 117.38L457.214 117.538L457.223 117.538L457.414 117.539L457.519 117.376C458.291 116.002 459.558 114.973 461.061 114.499C461.367 114.367 461.71 114.348 462.029 114.444C462.348 114.541 462.622 114.747 462.804 115.027C463.188 115.68 463.428 116.408 463.505 117.162C463.615 117.958 463.619 118.759 463.665 119.562C463.673 120.377 463.643 121.185 463.587 121.999C463.473 123.624 463.278 125.243 463.002 126.849L462.717 128.504L464.024 127.423C465.223 126.327 466.63 125.482 468.162 124.94C468.814 124.721 469.525 124.756 470.153 125.038C470.74 125.392 471.186 125.938 471.417 126.583C471.688 127.262 471.782 127.999 471.689 128.724C471.646 129.092 471.56 129.454 471.434 129.803L471.009 131.019L469.308 135.882C468.162 139.12 467.058 142.373 465.964 145.629C465.409 147.261 464.88 148.891 464.278 150.446C463.658 152.013 462.939 153.548 462.171 155.061C460.625 158.087 458.832 160.991 457.032 163.91C456.143 165.388 455.208 166.801 454.408 168.424C454.304 168.647 454.214 168.876 454.139 169.109C454.104 169.255 454.073 169.402 454.047 169.549C454.026 169.683 454.028 169.77 454.018 169.883L453.927 171.165L453.746 173.729C453.248 180.568 452.828 187.413 452.438 194.27L452.623 194.286Z" fill="url(#paint12_linear_23_246)"/>
<path d="M441.425 117.742L445.648 107.901L444.779 107.572L441.425 117.742Z" fill="url(#paint13_linear_23_246)"/>
<path d="M303.832 84.1235C307.257 85.575 310.828 86.7954 314.403 87.9151C317.997 89.0233 321.649 89.9316 325.344 90.6357C329.058 91.3962 332.841 91.7731 336.633 91.7605C338.557 91.743 340.475 91.5462 342.362 91.1727C344.306 90.8022 346.167 90.0819 347.854 89.0467L347.772 89.0938C350.609 87.6784 353.461 86.2929 356.281 84.8462L357.223 84.3635L356.656 83.5483C356.588 83.4388 356.503 83.3411 356.404 83.2587C356.356 83.2139 356.305 83.1729 356.251 83.1361C356.165 83.0773 356.065 83.0004 355.989 82.9606C355.833 82.8746 355.665 82.7683 355.516 82.7046C355.209 82.5531 354.907 82.4232 354.608 82.3099C354.008 82.0762 353.413 81.869 352.816 81.6918C351.624 81.3138 350.424 81.0279 349.226 80.7475C346.828 80.1944 344.422 79.7266 342.007 79.3441C339.595 78.9386 337.179 78.5827 334.76 78.2544C332.343 77.912 329.92 77.6267 327.5 77.3235L327.828 77.504L322.878 71.8394C321.225 69.9487 319.633 68.0293 317.924 66.1596C314.474 62.4603 310.476 59.3123 306.07 56.8257C303.86 55.5965 301.563 54.5294 299.197 53.633C296.822 52.761 294.392 52.0479 291.922 51.4983C286.973 50.2397 281.846 49.8332 276.76 50.2965C271.613 50.9326 266.706 52.8453 262.485 55.8605C258.287 58.9201 254.868 62.9239 252.502 67.5486C251.331 69.8592 250.418 72.2917 249.779 74.8023L249.365 76.7C249.25 77.3285 249.139 77.9524 249.043 78.5825C248.842 79.8393 248.679 81.1032 248.554 82.3741C248.282 84.9253 248.22 87.4946 248.368 90.056C248.506 92.6565 248.98 95.2283 249.779 97.7071L250.1 98.671L251.07 98.3793L264.18 94.4384L277.326 90.6114C281.708 89.3359 286.1 88.0982 290.512 86.9427C292.714 86.3479 294.924 85.7872 297.141 85.2604C298.254 85.0296 299.361 84.7318 300.481 84.5554L302.161 84.2545L303.832 84.1235ZM303.877 83.9226L302.127 83.9408L300.417 84.1362C299.272 84.2569 298.155 84.4966 297.021 84.6714C294.769 85.0846 292.523 85.5267 290.29 86.0201C285.823 87.0113 281.378 88.0845 276.944 89.1954C272.508 90.3034 268.097 91.5024 263.684 92.6933C259.275 93.899 254.865 95.0903 250.473 96.3732L251.764 97.0453C250.291 92.4761 250.302 87.4668 250.745 82.5897C250.863 81.3649 251.018 80.1424 251.212 78.9223C251.304 78.3128 251.411 77.702 251.521 77.0976L251.906 75.3206C252.478 72.9618 253.305 70.6722 254.373 68.4923C256.539 64.1215 259.701 60.3207 263.606 57.3962C267.545 54.4947 272.133 52.6001 276.972 51.8773C281.883 51.297 286.857 51.5355 291.69 52.5832C296.595 53.4574 301.329 55.1052 305.717 57.4648C310.104 59.8428 314.066 62.9313 317.443 66.6049C320.727 70.3533 323.857 74.3032 327.029 78.178L327.15 78.3247L327.358 78.3587C329.759 78.7498 332.163 79.1262 334.557 79.5532C336.953 79.9662 339.344 80.4065 341.721 80.8941C344.099 81.3763 346.468 81.8921 348.808 82.4712C349.976 82.7637 351.138 83.0826 352.269 83.4375C352.839 83.6083 353.395 83.806 353.928 84.0157C354.199 84.1195 354.454 84.2312 354.694 84.3508C354.825 84.4072 354.912 84.4713 355.024 84.5292C355.064 84.5533 355.103 84.5795 355.141 84.6077C355.163 84.6212 355.179 84.6335 355.167 84.626C355.154 84.604 355.202 84.6799 355.076 84.4977L355.45 83.2001C352.611 84.6107 349.803 86.0827 346.98 87.5247L346.935 87.5477L346.898 87.5719C343.967 89.4811 340.221 90.0312 336.596 90.1613C334.756 90.2063 332.915 90.1518 331.081 89.9983C329.238 89.8655 327.397 89.6429 325.563 89.3569C321.89 88.8074 318.256 87.9738 314.637 87.0775C311.014 86.1675 307.452 85.1097 303.877 83.9226Z" fill="url(#paint14_linear_23_246)"/>
<path d="M281.184 55.8331C282.944 57.9004 284.746 59.9098 286.557 61.9084L291.986 67.8947C293.795 69.8866 295.59 71.8909 297.369 73.9076C299.137 75.9368 300.885 77.9778 302.621 80.0667C301.332 77.6741 299.854 75.3883 298.201 73.2312C296.575 71.0553 294.808 68.9952 293.003 66.9728C291.175 64.9718 289.288 63.0261 287.322 61.1628C285.37 59.281 283.321 57.502 281.184 55.8331Z" fill="url(#paint15_linear_23_246)"/>
<path d="M271.789 56.8221C270.334 59.4629 269.047 62.193 267.936 64.9962C266.806 67.7917 265.82 70.6418 264.976 73.5463C264.14 76.4526 263.487 79.4088 263.023 82.3973C262.562 85.3886 262.433 88.4219 262.64 91.4415C262.965 88.4678 263.445 85.5129 264.078 82.5891C264.72 79.6779 265.475 76.7937 266.296 73.9257C267.106 71.0536 268.024 68.2106 268.939 65.3618C269.882 62.5222 270.811 59.6714 271.789 56.8221Z" fill="url(#paint16_linear_23_246)"/>
<path d="M327.426 77.8411C325.802 77.8635 324.181 77.9771 322.57 78.1812C320.964 78.3619 319.372 78.6216 317.783 78.8967C316.198 79.1969 314.617 79.5142 313.049 79.9102C311.469 80.2858 309.912 80.7509 308.385 81.303C310.009 81.2823 311.63 81.1694 313.241 80.9649C314.847 80.7839 316.439 80.5241 318.028 80.2475C319.612 79.9455 321.194 79.6282 322.761 79.2319C324.341 78.8559 325.898 78.3916 327.426 77.8411Z" fill="url(#paint17_linear_23_246)"/>
<path d="M327.426 90.313C327.4 91.692 327.473 93.0686 327.571 94.4474C327.659 95.839 327.858 97.2214 328.164 98.5817C328.316 99.3166 328.593 100.02 328.984 100.661C329.335 101.185 329.677 101.798 330.017 102.382C330.704 103.561 331.367 104.761 332.028 105.959C333.366 108.35 334.681 110.752 335.974 113.166C336.609 114.377 337.266 115.578 337.873 116.796C338.179 117.404 338.469 118.018 338.752 118.627C338.891 118.933 339.023 119.239 339.137 119.541C339.188 119.689 339.249 119.845 339.279 119.977C339.298 120.033 339.311 120.091 339.317 120.149C339.319 120.16 339.329 120.216 339.328 120.191C339.328 120.168 339.334 120.145 339.345 120.125C339.357 120.105 339.373 120.088 339.392 120.076L339.645 119.899C339.176 120.01 338.694 120.056 338.212 120.034C337.698 120.013 337.187 119.944 336.685 119.828C336.175 119.708 335.672 119.557 335.181 119.375C334.684 119.186 334.198 118.969 333.725 118.727L333.655 118.692L333.609 118.701C333.127 118.792 332.674 119.002 332.293 119.311C331.928 119.618 331.667 120.031 331.547 120.492C331.727 120.075 332.033 119.723 332.421 119.486C332.79 119.253 333.211 119.113 333.646 119.078L333.531 119.053C334.443 119.685 335.438 120.186 336.489 120.541C337.029 120.715 337.584 120.837 338.146 120.907C338.741 120.99 339.346 120.97 339.934 120.848L340.103 120.811L340.187 120.671C340.253 120.559 340.298 120.436 340.322 120.308C340.33 120.237 340.33 120.165 340.324 120.094C340.321 119.981 340.306 119.869 340.279 119.759C340.242 119.573 340.194 119.388 340.137 119.206C340.03 118.858 339.91 118.525 339.784 118.197C339.534 117.541 339.251 116.906 338.965 116.275C338.388 115.015 337.791 113.77 337.152 112.548C335.897 110.093 334.555 107.689 333.172 105.307C332.469 104.121 331.755 102.944 331.017 101.774C330.641 101.187 330.273 100.623 329.826 100.029C329.48 99.5069 329.219 98.9332 329.053 98.3294C328.318 95.6999 327.774 93.0208 327.426 90.313Z" fill="url(#paint18_linear_23_246)"/>
<path d="M323.964 123.918C327.92 117.818 333.628 120.492 333.628 120.492C333.628 120.492 335.833 150.789 322.315 151.613C312.028 152.241 303.176 145.993 296.952 139.266C293.728 135.764 291.688 131.337 291.12 126.611C290.276 119.711 289.007 109.286 288.685 106.278C288.191 101.662 286.32 89.5764 279.618 90.313C279.618 90.313 265.606 90.4524 272.859 114.686C272.859 114.686 274.837 129.853 261.979 128.039C261.979 128.039 264.617 120.456 261.155 114.686C257.693 108.916 253.141 101.622 253.356 96.614C253.356 96.614 298.741 83.1988 303.852 84.0231C300.706 85.6835 298.176 88.3089 296.633 91.5135C295.091 94.7181 294.616 98.3331 295.279 101.827C296.787 111.627 304.039 124.778 307.405 130.48C307.938 131.39 308.708 132.138 309.633 132.645C310.558 133.151 311.603 133.398 312.657 133.359C314.606 133.28 316.842 132.995 317.906 132.16C320.008 130.512 323.964 123.918 323.964 123.918Z" fill="url(#paint19_linear_23_246)"/>
<path d="M324.449 94.8546C323.486 94.1127 322.383 93.5718 321.206 93.2642C320.009 92.9275 318.759 92.8231 317.522 92.9569C316.258 93.108 315.056 93.5872 314.035 94.3467C313.042 95.0881 312.28 96.0959 311.837 97.2531C312.67 96.4701 313.602 95.7978 314.607 95.2529C315.572 94.7605 316.617 94.4443 317.693 94.3192C318.794 94.1971 319.905 94.1951 321.007 94.3133C322.133 94.431 323.271 94.6158 324.449 94.8546Z" fill="url(#paint20_linear_23_246)"/>
<path d="M285.555 111.719C283.345 112.585 280.787 112.487 279.15 111.037C278.325 110.305 277.666 109.405 277.218 108.397C276.735 107.361 276.349 106.283 276.063 105.176C275.426 102.945 275.049 100.647 274.94 98.3291C274.889 97.1655 274.919 95.9999 275.028 94.8404C275.082 94.2574 275.167 93.6776 275.281 93.1033C275.332 92.813 275.406 92.5302 275.483 92.2453C275.543 91.9571 275.661 91.6838 275.828 91.4417C275.414 91.8859 275.103 92.4158 274.916 92.9938C274.695 93.5584 274.511 94.1365 274.363 94.7246C274.082 95.907 273.917 97.1138 273.868 98.3281C273.78 100.765 274.074 103.2 274.741 105.545C275.402 107.824 276.362 110.346 278.505 111.887C279.559 112.642 280.842 113.006 282.135 112.919C283.363 112.838 284.545 112.423 285.555 111.719Z" fill="url(#paint21_linear_23_246)"/>
<path d="M301.547 143.666C300.739 144.159 299.991 144.746 299.321 145.415C298.646 146.065 298.025 146.767 297.462 147.516C296.891 148.272 296.399 149.084 295.993 149.94C295.52 150.802 295.329 151.791 295.446 152.767C295.842 151.952 296.335 151.187 296.913 150.49C297.457 149.774 298.027 149.07 298.562 148.338C299.106 147.611 299.635 146.867 300.142 146.098C300.669 145.323 301.139 144.51 301.547 143.666Z" fill="url(#paint22_linear_23_246)"/>
<path d="M261.98 128.039C261.107 129.39 260.311 130.79 259.597 132.232C259.236 132.921 258.879 133.602 258.477 134.25C258.08 134.933 257.595 135.56 257.035 136.117C257.907 135.995 258.71 135.575 259.307 134.928C259.918 134.329 260.426 133.634 260.812 132.871C261.2 132.13 261.499 131.345 261.702 130.533C261.924 129.721 262.018 128.88 261.98 128.039Z" fill="url(#paint23_linear_23_246)"/>
<path d="M241.865 124.573C241.865 124.573 257.765 125.734 260.451 132.081L259.968 132.992L258.193 132.081C249.662 127.835 244.839 133.475 250.768 134.47C256.706 135.455 292.065 151.652 292.065 151.652C307.398 155.992 316.384 179.307 316.384 179.307C313.912 178.248 311.394 177.3 308.894 176.287C306.329 175.46 303.783 174.568 301.19 173.834C295.985 172.364 290.676 171.286 285.309 170.609C279.933 169.917 274.502 169.749 269.093 170.107C267.746 170.256 266.398 170.34 265.051 170.535C263.722 170.767 262.374 170.925 261.055 171.241C258.401 171.763 255.816 172.589 253.351 173.704C255.914 172.937 258.543 172.412 261.204 172.133C262.523 171.929 263.861 171.864 265.181 171.743C266.51 171.659 267.839 171.613 269.167 171.548C274.488 171.467 279.808 171.768 285.086 172.449L289.045 172.96L292.985 173.657L294.955 173.983L296.906 174.41C298.217 174.698 299.518 174.977 300.828 175.246C303.43 175.85 306.013 176.538 308.625 177.161C311.208 177.867 313.773 178.648 316.384 179.307C356.603 185.905 395.847 210.633 398.476 209.973C401.116 209.314 403.429 188.544 403.429 183.201C403.429 177.867 404.414 167.766 412.332 167.766C420.24 167.766 419.255 174.689 419.255 174.689C404.414 178.648 438.705 181.621 448.927 182.931C459.149 184.251 453.545 180.302 453.545 180.302C453.545 180.302 456.51 177.133 459.688 181.073C460.68 182.344 461.348 183.836 461.636 185.423C461.925 187.009 461.824 188.641 461.342 190.18C460.329 193.562 458.833 198.692 457.829 202.716C456.175 209.314 450.246 256.79 448.267 261.409C446.288 266.018 405.409 278.22 318.363 271.956C311.31 270.85 304.285 269.68 297.26 268.509C290.243 267.31 283.227 266.083 276.267 264.661C272.782 263.964 269.298 263.24 265.85 262.413C262.384 261.623 258.945 260.746 255.535 259.783C252.123 258.824 248.761 257.695 245.462 256.4C242.121 255.198 239.01 253.435 236.262 251.187C237.473 252.512 238.861 253.663 240.388 254.607C241.898 255.582 243.468 256.46 245.09 257.236C248.345 258.752 251.691 260.065 255.108 261.167C261.93 263.335 268.87 265.11 275.895 266.483C282.911 267.877 289.962 269.029 297.046 269.94C304.127 270.878 311.236 271.566 318.363 271.956C318.363 271.956 321.532 291.22 323.186 308.551H199.202C199.332 291.629 199.36 269.206 198.84 249.04C197.855 210.141 198.84 191.834 198.84 191.834C200.622 191.637 202.383 191.276 204.099 190.756C205.819 190.264 207.501 189.678 209.183 189.074C212.537 187.866 215.808 186.454 219.061 185.004C222.295 183.526 225.491 181.984 228.642 180.32C231.792 178.675 234.905 176.938 237.916 175.023C234.561 176.25 231.281 177.616 228.019 179.019C224.757 180.404 221.533 181.872 218.29 183.313L208.634 187.736C205.391 189.167 202.222 190.71 198.84 191.834C198.84 191.834 182.522 199.259 181.035 180.46C179.557 161.67 197.362 121.116 241.865 124.573ZM235.016 185.626C233.377 187.175 231.946 188.93 230.761 190.849C230.175 191.806 229.673 192.819 229.144 193.823C228.688 194.854 228.317 195.913 227.889 196.964C227.687 197.49 227.526 198.03 227.406 198.58L226.978 200.216C226.69 201.303 226.479 202.408 226.346 203.524L226.123 205.197L226.012 206.033L225.975 206.87L225.863 210.224L225.835 211.061L225.891 211.897L226.012 213.57C226.086 214.685 226.161 215.791 226.281 216.897C226.653 219.09 227.006 221.283 227.48 223.448C228.084 225.585 228.67 227.713 229.339 229.813C229.069 227.611 228.725 225.446 228.382 223.281C228.121 221.106 227.973 218.922 227.722 216.757L227.638 213.495L227.592 211.869L227.564 211.061L227.62 210.252L227.787 207.009L227.824 206.201L227.945 205.401L228.186 203.803C228.732 199.531 230.024 195.388 232.006 191.564C233.032 189.669 234.259 187.89 235.667 186.258C237.072 184.588 238.716 183.135 240.546 181.946C238.493 182.825 236.619 184.072 235.016 185.626ZM211.59 147.991C212.255 149.39 213.394 150.51 214.805 151.15C215.503 151.469 216.236 151.706 216.989 151.856C217.74 151.963 218.497 152.028 219.256 152.052C220.009 152.014 220.771 152.014 221.514 151.921L223.726 151.559C224.46 151.41 225.166 151.197 225.891 151.011L227.982 150.444C229.345 150.088 230.734 149.84 232.136 149.7C234.976 149.436 237.834 149.426 240.676 149.673C246.419 150.191 252.11 151.179 257.691 152.628C260.497 153.334 263.304 154.096 266.082 154.923C268.879 155.713 271.63 156.624 274.399 157.544C269.134 155.007 263.674 152.897 258.072 151.234C252.457 149.501 246.677 148.358 240.825 147.823C237.863 147.588 234.885 147.632 231.931 147.953C230.444 148.145 228.975 148.452 227.536 148.873L223.401 150.147L221.328 150.593C220.631 150.713 219.934 150.741 219.237 150.834C218.54 150.881 217.844 150.825 217.156 150.806C216.474 150.715 215.804 150.55 215.158 150.314C213.843 149.862 212.733 148.956 212.026 147.758C211.661 147.15 211.386 146.493 211.208 145.807C210.999 145.113 210.887 144.394 210.874 143.669C210.712 145.148 210.96 146.643 211.589 147.991H211.59Z" fill="url(#paint24_linear_23_246)"/>
<path d="M375.398 308.554C357.1 308.023 338.801 307.667 320.502 307.486C311.353 307.36 302.203 307.332 293.054 307.257L265.606 307.181L238.158 307.253C229.008 307.33 219.859 307.354 210.709 307.482C192.41 307.662 174.112 308.019 155.813 308.554C174.112 309.088 192.41 309.446 210.709 309.626C219.859 309.754 229.008 309.778 238.158 309.855L265.606 309.927L293.054 309.851C302.203 309.777 311.353 309.749 320.502 309.622C338.801 309.441 357.1 309.085 375.398 308.554Z" fill="url(#paint25_linear_23_246)"/>
<path d="M321.37 104.806C317.782 104.806 317.776 99.2303 321.37 99.2303C324.957 99.2303 324.963 104.806 321.37 104.806Z" fill="url(#paint26_linear_23_246)"/>
<defs>
<linearGradient id="paint0_linear_23_246" x1="492.484" y1="94.6023" x2="492.484" y2="154.874" gradientUnits="userSpaceOnUse">
<stop stop-color="white"/>
<stop offset="1" stop-color="#EC2027"/>
</linearGradient>
<linearGradient id="paint1_linear_23_246" x1="418.025" y1="109.416" x2="418.025" y2="128.866" gradientUnits="userSpaceOnUse">
<stop stop-color="white"/>
<stop offset="1" stop-color="#EC2027"/>
</linearGradient>
<linearGradient id="paint2_linear_23_246" x1="482.911" y1="115.116" x2="482.911" y2="124.09" gradientUnits="userSpaceOnUse">
<stop stop-color="white"/>
<stop offset="1" stop-color="#EC2027"/>
</linearGradient>
<linearGradient id="paint3_linear_23_246" x1="518.201" y1="98.7195" x2="518.201" y2="130.513" gradientUnits="userSpaceOnUse">
<stop stop-color="white"/>
<stop offset="1" stop-color="#EC2027"/>
</linearGradient>
<linearGradient id="paint4_linear_23_246" x1="467.709" y1="117.566" x2="467.709" y2="121.302" gradientUnits="userSpaceOnUse">
<stop stop-color="white"/>
<stop offset="1" stop-color="#EC2027"/>
</linearGradient>
<linearGradient id="paint5_linear_23_246" x1="456.14" y1="114.276" x2="456.14" y2="117.185" gradientUnits="userSpaceOnUse">
<stop stop-color="white"/>
<stop offset="1" stop-color="#EC2027"/>
</linearGradient>
<linearGradient id="paint6_linear_23_246" x1="467.77" y1="108.106" x2="467.77" y2="117.743" gradientUnits="userSpaceOnUse">
<stop stop-color="white"/>
<stop offset="1" stop-color="#EC2027"/>
</linearGradient>
<linearGradient id="paint7_linear_23_246" x1="446.514" y1="105.569" x2="446.514" y2="106.796" gradientUnits="userSpaceOnUse">
<stop stop-color="white"/>
<stop offset="1" stop-color="#EC2027"/>
</linearGradient>
<linearGradient id="paint8_linear_23_246" x1="537.141" y1="100.062" x2="537.141" y2="133.239" gradientUnits="userSpaceOnUse">
<stop stop-color="white"/>
<stop offset="1" stop-color="#EC2027"/>
</linearGradient>
<linearGradient id="paint9_linear_23_246" x1="493.751" y1="121.198" x2="493.751" y2="154.824" gradientUnits="userSpaceOnUse">
<stop stop-color="white"/>
<stop offset="1" stop-color="#EC2027"/>
</linearGradient>
<linearGradient id="paint10_linear_23_246" x1="447.476" y1="129.866" x2="447.476" y2="210.01" gradientUnits="userSpaceOnUse">
<stop stop-color="white"/>
<stop offset="1" stop-color="#EC2027"/>
</linearGradient>
<linearGradient id="paint11_linear_23_246" x1="486.06" y1="99.3322" x2="486.06" y2="104.132" gradientUnits="userSpaceOnUse">
<stop stop-color="white"/>
<stop offset="1" stop-color="#EC2027"/>
</linearGradient>
<linearGradient id="paint12_linear_23_246" x1="437.502" y1="90.7348" x2="437.502" y2="194.286" gradientUnits="userSpaceOnUse">
<stop stop-color="white"/>
<stop offset="1" stop-color="#EC2027"/>
</linearGradient>
<linearGradient id="paint13_linear_23_246" x1="443.537" y1="107.572" x2="443.537" y2="117.742" gradientUnits="userSpaceOnUse">
<stop stop-color="white"/>
<stop offset="1" stop-color="#EC2027"/>
</linearGradient>
<linearGradient id="paint14_linear_23_246" x1="302.756" y1="50.1111" x2="302.756" y2="98.671" gradientUnits="userSpaceOnUse">
<stop stop-color="white"/>
<stop offset="1" stop-color="#EC2027"/>
</linearGradient>
<linearGradient id="paint15_linear_23_246" x1="291.903" y1="55.8331" x2="291.903" y2="80.0667" gradientUnits="userSpaceOnUse">
<stop stop-color="white"/>
<stop offset="1" stop-color="#EC2027"/>
</linearGradient>
<linearGradient id="paint16_linear_23_246" x1="267.167" y1="56.8221" x2="267.167" y2="91.4415" gradientUnits="userSpaceOnUse">
<stop stop-color="white"/>
<stop offset="1" stop-color="#EC2027"/>
</linearGradient>
<linearGradient id="paint17_linear_23_246" x1="317.905" y1="77.8411" x2="317.905" y2="81.303" gradientUnits="userSpaceOnUse">
<stop stop-color="white"/>
<stop offset="1" stop-color="#EC2027"/>
</linearGradient>
<linearGradient id="paint18_linear_23_246" x1="333.874" y1="90.313" x2="333.874" y2="120.957" gradientUnits="userSpaceOnUse">
<stop stop-color="white"/>
<stop offset="1" stop-color="#EC2027"/>
</linearGradient>
<linearGradient id="paint19_linear_23_246" x1="293.555" y1="83.9866" x2="293.555" y2="151.657" gradientUnits="userSpaceOnUse">
<stop stop-color="white"/>
<stop offset="1" stop-color="#EC2027"/>
</linearGradient>
<linearGradient id="paint20_linear_23_246" x1="318.143" y1="92.9004" x2="318.143" y2="97.2531" gradientUnits="userSpaceOnUse">
<stop stop-color="white"/>
<stop offset="1" stop-color="#EC2027"/>
</linearGradient>
<linearGradient id="paint21_linear_23_246" x1="279.704" y1="91.4417" x2="279.704" y2="112.932" gradientUnits="userSpaceOnUse">
<stop stop-color="white"/>
<stop offset="1" stop-color="#EC2027"/>
</linearGradient>
<linearGradient id="paint22_linear_23_246" x1="298.48" y1="143.666" x2="298.48" y2="152.767" gradientUnits="userSpaceOnUse">
<stop stop-color="white"/>
<stop offset="1" stop-color="#EC2027"/>
</linearGradient>
<linearGradient id="paint23_linear_23_246" x1="259.511" y1="128.039" x2="259.511" y2="136.117" gradientUnits="userSpaceOnUse">
<stop stop-color="white"/>
<stop offset="1" stop-color="#EC2027"/>
</linearGradient>
<linearGradient id="paint24_linear_23_246" x1="321.374" y1="124.365" x2="321.374" y2="308.551" gradientUnits="userSpaceOnUse">
<stop stop-color="white"/>
<stop offset="1" stop-color="#EC2027"/>
</linearGradient>
<linearGradient id="paint25_linear_23_246" x1="265.606" y1="307.181" x2="265.606" y2="309.927" gradientUnits="userSpaceOnUse">
<stop stop-color="white"/>
<stop offset="1" stop-color="#EC2027"/>
</linearGradient>
<linearGradient id="paint26_linear_23_246" x1="321.37" y1="99.2303" x2="321.37" y2="104.806" gradientUnits="userSpaceOnUse">
<stop stop-color="white"/>
<stop offset="1" stop-color="#EC2027"/>
</linearGradient>
</defs>
</svg>
