<svg width="43" height="44" viewBox="0 0 43 44" fill="none" xmlns="http://www.w3.org/2000/svg">
<path d="M15.8265 31.473C13.9221 37.1362 6.37109 37.1362 6.37109 37.1362C6.37109 37.1362 6.37109 29.5852 12.0343 27.6808" stroke="white" stroke-width="2.13833" stroke-linecap="round" stroke-linejoin="round"/>
<path d="M32.8347 18.2421L21.4915 29.5852L13.9238 22.0175L25.267 10.6744C29.5604 6.38099 33.8538 6.4311 35.6914 6.6984C35.975 6.73623 36.2382 6.86632 36.4405 7.06861C36.6428 7.27089 36.7728 7.53412 36.8107 7.81768C37.078 9.65531 37.1281 13.9487 32.8347 18.2421Z" stroke="white" stroke-width="2.13833" stroke-linecap="round" stroke-linejoin="round"/>
<path d="M30.9457 20.1298V30.9217C30.9407 31.2742 30.7965 31.6104 30.5447 31.8572L25.1488 37.2698C24.9776 37.4408 24.7632 37.5621 24.5285 37.6208C24.2937 37.6795 24.0475 37.6734 23.8159 37.6031C23.5844 37.5327 23.3763 37.4009 23.2139 37.2216C23.0514 37.0423 22.9407 36.8222 22.8935 36.5849L21.4902 29.5852" stroke="white" stroke-width="2.13833" stroke-linecap="round" stroke-linejoin="round"/>
<path d="M23.3786 12.562H12.5867C12.2342 12.567 11.898 12.7111 11.6512 12.9629L6.23855 18.3589C6.06756 18.5301 5.94625 18.7445 5.88756 18.9792C5.82888 19.214 5.83502 19.4602 5.90533 19.6917C5.97564 19.9233 6.10749 20.1314 6.2868 20.2938C6.46612 20.4563 6.68617 20.567 6.92349 20.6142L13.9232 22.0175" stroke="white" stroke-width="2.13833" stroke-linecap="round" stroke-linejoin="round"/>
</svg>
