<svg width="43" height="44" viewBox="0 0 43 44" fill="none" xmlns="http://www.w3.org/2000/svg">
<path d="M6.81836 11.3259V32.7092C6.81836 33.4181 7.09997 34.098 7.60124 34.5992C8.10251 35.1005 8.78237 35.3821 9.49128 35.3821H36.2204C36.5749 35.3821 36.9148 35.2413 37.1655 34.9907C37.4161 34.74 37.5569 34.4001 37.5569 34.0457V15.3352C37.5569 14.9808 37.4161 14.6409 37.1655 14.3902C36.9148 14.1396 36.5749 13.9988 36.2204 13.9988H9.49128C8.78237 13.9988 8.10251 13.7172 7.60124 13.2159C7.09997 12.7146 6.81836 12.0348 6.81836 11.3259ZM6.81836 11.3259C6.81836 10.617 7.09997 9.9371 7.60124 9.43583C8.10251 8.93456 8.78237 8.65295 9.49128 8.65295H32.2111" stroke="white" stroke-width="2.13833" stroke-linecap="round" stroke-linejoin="round"/>
<path d="M30.2078 26.695C31.315 26.695 32.2125 25.7975 32.2125 24.6904C32.2125 23.5832 31.315 22.6857 30.2078 22.6857C29.1007 22.6857 28.2031 23.5832 28.2031 24.6904C28.2031 25.7975 29.1007 26.695 30.2078 26.695Z" fill="white"/>
</svg>
