<svg width="43" height="43" viewBox="0 0 43 43" fill="none" xmlns="http://www.w3.org/2000/svg">
<path d="M21.5195 14.9002V10.8909" stroke="white" stroke-width="2.13833" stroke-linecap="round" stroke-linejoin="round"/>
<path d="M21.519 10.8909C29.237 8.21794 21.519 1.53564 21.519 1.53564C21.519 1.53564 13.5002 8.21794 21.519 10.8909Z" stroke="white" stroke-width="2.13833" stroke-linecap="round" stroke-linejoin="round"/>
<path d="M27.1997 21.2484C27.1997 22.7548 26.6013 24.1995 25.5361 25.2647C24.4709 26.3299 23.0262 26.9284 21.5198 26.9284C20.0134 26.9284 18.5687 26.3299 17.5035 25.2647C16.4383 24.1995 15.8398 22.7548 15.8398 21.2484" stroke="white" stroke-width="2.13833" stroke-linecap="round" stroke-linejoin="round"/>
<path d="M15.8404 21.2485C15.8407 22.7349 15.2584 24.1621 14.2183 25.224C13.1783 26.2859 11.7634 26.8978 10.2774 26.9284C7.0866 26.9953 4.4805 24.3223 4.4805 21.1315V18.9097C4.47829 18.3825 4.58049 17.8602 4.7812 17.3727C4.9819 16.8853 5.27715 16.4424 5.64989 16.0697C6.02264 15.6969 6.46551 15.4017 6.95295 15.201C7.44038 15.0003 7.96274 14.8981 8.48988 14.9003H34.5508C35.078 14.8981 35.6003 15.0003 36.0877 15.201C36.5752 15.4017 37.0181 15.6969 37.3908 16.0697C37.7635 16.4424 38.0588 16.8853 38.2595 17.3727C38.4602 17.8602 38.5624 18.3825 38.5602 18.9097V21.1315C38.5602 24.3223 35.9541 26.9953 32.7633 26.9284C31.2772 26.8978 29.8624 26.2859 28.8224 25.224C27.7823 24.1621 27.2 22.7349 27.2003 21.2485" stroke="white" stroke-width="2.13833" stroke-linecap="round" stroke-linejoin="round"/>
<path d="M36.2204 25.8091V34.9471C36.2204 35.3016 36.0796 35.6415 35.829 35.8921C35.5784 36.1428 35.2384 36.2836 34.884 36.2836H8.15482C7.80037 36.2836 7.46043 36.1428 7.2098 35.8921C6.95916 35.6415 6.81836 35.3016 6.81836 34.9471V25.8091" stroke="white" stroke-width="2.13833" stroke-linecap="round" stroke-linejoin="round"/>
</svg>
