<svg width="43" height="43" viewBox="0 0 43 43" fill="none" xmlns="http://www.w3.org/2000/svg">
<path d="M8.8062 20.4334C8.60876 20.0911 8.34584 19.7911 8.03245 19.5505C7.71907 19.3099 7.36136 19.1333 6.97975 19.031C6.59814 18.9286 6.20009 18.9024 5.80835 18.9538C5.4166 19.0053 5.03883 19.1334 4.69659 19.3308C4.35435 19.5282 4.05436 19.7912 3.81373 20.1046C3.5731 20.4179 3.39656 20.7756 3.29417 21.1573C3.19179 21.5389 3.16557 21.9369 3.21702 22.3287C3.26847 22.7204 3.39657 23.0982 3.59401 23.4404L9.77513 34.1488C11.3865 36.8788 14.0105 38.8622 17.0764 39.6679C20.1424 40.4736 23.4025 40.0364 26.1478 38.4513C28.8931 36.8661 30.9016 34.2614 31.7367 31.2033C32.5718 28.1452 32.1659 24.8811 30.6072 22.1207L27.7672 17.1925C27.344 16.5542 26.6931 16.1014 25.9475 15.9266C25.2018 15.7517 24.4176 15.868 23.7547 16.2517C23.0919 16.6353 22.6004 17.2574 22.3806 17.991C22.1607 18.7247 22.2291 19.5146 22.5717 20.1995" stroke="white" stroke-width="2.13833" stroke-linecap="round" stroke-linejoin="round"/>
<path d="M18.0274 24.3759L11.6792 13.3835C11.4818 13.0412 11.2189 12.7412 10.9055 12.5006C10.5921 12.26 10.2344 12.0834 9.8528 11.9811C9.47118 11.8787 9.07314 11.8525 8.6814 11.9039C8.28965 11.9554 7.91188 12.0835 7.56964 12.2809C7.2274 12.4783 6.92741 12.7413 6.68678 13.0547C6.44615 13.368 6.26961 13.7257 6.16722 14.1074C6.06484 14.489 6.03862 14.887 6.09007 15.2788C6.14151 15.6705 6.26962 16.0483 6.46706 16.3905L12.8152 27.3829" stroke="white" stroke-width="2.13833" stroke-linecap="round" stroke-linejoin="round"/>
<path d="M25.2445 24.8437L18.2281 12.682C17.8293 11.9908 17.1723 11.4863 16.4016 11.2795C15.6309 11.0728 14.8097 11.1806 14.1185 11.5794C13.4273 11.9781 12.9228 12.6351 12.7161 13.4058C12.5093 14.1765 12.6171 14.9978 13.0159 15.689" stroke="white" stroke-width="2.13833" stroke-linecap="round" stroke-linejoin="round"/>
<path d="M16.691 11.3788L14.9703 8.38849C14.5715 7.69731 13.9145 7.19285 13.1438 6.98608C12.3731 6.7793 11.5518 6.88716 10.8607 7.28592C10.1695 7.68467 9.66502 8.34167 9.45825 9.11237C9.25147 9.88307 9.35933 10.7043 9.75808 11.3955L10.159 12.0805" stroke="white" stroke-width="2.13833" stroke-linecap="round" stroke-linejoin="round"/>
<path d="M31.5582 32.0606C33.5972 30.2143 34.9427 27.7258 35.3713 25.0087C35.7998 22.2917 35.2855 19.5098 33.9138 17.1257L31.0738 12.2142C30.8763 11.8719 30.6134 11.5719 30.3 11.3313C29.9866 11.0907 29.6289 10.9141 29.2473 10.8118C28.8657 10.7094 28.4677 10.6832 28.0759 10.7346C27.6842 10.786 27.3064 10.9141 26.9642 11.1116C26.6219 11.309 26.3219 11.572 26.0813 11.8853C25.8407 12.1987 25.6641 12.5564 25.5618 12.938C25.4594 13.3197 25.4332 13.7177 25.4846 14.1094C25.536 14.5012 25.6641 14.879 25.8616 15.2212" stroke="white" stroke-width="2.13833" stroke-linecap="round" stroke-linejoin="round"/>
<path d="M26.2468 15.8894L21.5191 7.70356C21.1203 7.01238 20.4633 6.50791 19.6926 6.30114C18.9219 6.09437 18.1007 6.20222 17.4095 6.60098C16.7183 6.99974 16.2138 7.65673 16.0071 8.42743C15.8003 9.19813 15.9082 10.0194 16.3069 10.7106" stroke="white" stroke-width="2.13833" stroke-linecap="round" stroke-linejoin="round"/>
<path d="M29.6888 1.95679L29.0039 4.52947" stroke="white" stroke-width="2.13833" stroke-linecap="round" stroke-linejoin="round"/>
<path d="M34.7498 4.31238L33.2129 6.50083" stroke="white" stroke-width="2.13833" stroke-linecap="round" stroke-linejoin="round"/>
<path d="M38.6767 8.23816L36.4883 9.77509" stroke="white" stroke-width="2.13833" stroke-linecap="round" stroke-linejoin="round"/>
</svg>
