<svg width="43" height="43" viewBox="0 0 43 43" fill="none" xmlns="http://www.w3.org/2000/svg">
<path d="M14.8243 9.42444H10.815C10.0769 9.42444 9.47852 10.0228 9.47852 10.7609V32.1442C9.47852 32.8823 10.0769 33.4807 10.815 33.4807H14.8243C15.5625 33.4807 16.1608 32.8823 16.1608 32.1442V10.7609C16.1608 10.0228 15.5625 9.42444 14.8243 9.42444Z" stroke="white" stroke-width="2.13833" stroke-linecap="round" stroke-linejoin="round"/>
<path d="M32.1974 9.42444H28.188C27.4499 9.42444 26.8516 10.0228 26.8516 10.7609V32.1442C26.8516 32.8823 27.4499 33.4807 28.188 33.4807H32.1974C32.9355 33.4807 33.5339 32.8823 33.5339 32.1442V10.7609C33.5339 10.0228 32.9355 9.42444 32.1974 9.42444Z" stroke="white" stroke-width="2.13833" stroke-linecap="round" stroke-linejoin="round"/>
<path d="M33.5352 13.4338H37.5445C37.899 13.4338 38.2389 13.5746 38.4896 13.8253C38.7402 14.0759 38.881 14.4158 38.881 14.7703V28.1349C38.881 28.4893 38.7402 28.8293 38.4896 29.0799C38.2389 29.3305 37.899 29.4713 37.5445 29.4713H33.5352" stroke="white" stroke-width="2.13833" stroke-linecap="round" stroke-linejoin="round"/>
<path d="M9.47865 29.4713H5.46927C5.11482 29.4713 4.77489 29.3305 4.52425 29.0799C4.27362 28.8293 4.13281 28.4893 4.13281 28.1349V14.7703C4.13281 14.4158 4.27362 14.0759 4.52425 13.8253C4.77489 13.5746 5.11482 13.4338 5.46927 13.4338H9.47865" stroke="white" stroke-width="2.13833" stroke-linecap="round" stroke-linejoin="round"/>
<path d="M16.1602 21.4525H26.8518" stroke="white" stroke-width="2.13833" stroke-linecap="round" stroke-linejoin="round"/>
<path d="M38.8809 21.4525H41.5538" stroke="white" stroke-width="2.13833" stroke-linecap="round" stroke-linejoin="round"/>
<path d="M1.45898 21.4525H4.1319" stroke="white" stroke-width="2.13833" stroke-linecap="round" stroke-linejoin="round"/>
</svg>
