<svg width="43" height="43" viewBox="0 0 43 43" fill="none" xmlns="http://www.w3.org/2000/svg">
<path d="M21.4906 37.62C30.3479 37.62 37.5281 30.4398 37.5281 21.5825C37.5281 12.7253 30.3479 5.54504 21.4906 5.54504C12.6334 5.54504 5.45312 12.7253 5.45312 21.5825C5.45312 30.4398 12.6334 37.62 21.4906 37.62Z" stroke="white" stroke-width="2.13833" stroke-linecap="round" stroke-linejoin="round"/>
<path d="M15.4773 23.5873C16.5845 23.5873 17.482 22.6897 17.482 21.5826C17.482 20.4754 16.5845 19.5779 15.4773 19.5779C14.3702 19.5779 13.4727 20.4754 13.4727 21.5826C13.4727 22.6897 14.3702 23.5873 15.4773 23.5873Z" fill="white"/>
<path d="M27.5047 23.5873C28.6118 23.5873 29.5094 22.6897 29.5094 21.5826C29.5094 20.4754 28.6118 19.5779 27.5047 19.5779C26.3975 19.5779 25.5 20.4754 25.5 21.5826C25.5 22.6897 26.3975 23.5873 27.5047 23.5873Z" fill="white"/>
<path d="M25.9185 28.2649C24.6065 29.1362 23.0665 29.601 21.4915 29.601C19.9165 29.601 18.3765 29.1362 17.0645 28.2649" stroke="white" stroke-width="2.13833" stroke-linecap="round" stroke-linejoin="round"/>
<path d="M21.4913 5.54504C18.8184 8.88619 18.8184 12.2273 18.8184 12.2273C18.8184 12.9362 19.1 13.6161 19.6012 14.1174C20.1025 14.6186 20.7824 14.9003 21.4913 14.9003C22.2002 14.9003 22.88 14.6186 23.3813 14.1174C23.8826 13.6161 24.1642 12.9362 24.1642 12.2273" stroke="white" stroke-width="2.13833" stroke-linecap="round" stroke-linejoin="round"/>
</svg>
