<svg width="43" height="43" viewBox="0 0 43 43" fill="none" xmlns="http://www.w3.org/2000/svg">
<path d="M6.4991 34.8004L15.4868 10.0592C15.5637 9.84746 15.6929 9.65863 15.8624 9.51023C16.0319 9.36183 16.2361 9.25867 16.4561 9.21033C16.6761 9.16199 16.9048 9.17005 17.1208 9.23376C17.3369 9.29746 17.5333 9.41475 17.6919 9.57471L33.4287 25.3115C33.5887 25.4701 33.706 25.6666 33.7697 25.8826C33.8334 26.0987 33.8415 26.3273 33.7931 26.5474C33.7448 26.7674 33.6416 26.9716 33.4932 27.1411C33.3448 27.3105 33.156 27.4397 32.9443 27.5167L8.20309 36.5043C7.96506 36.5953 7.70578 36.6155 7.45656 36.5623C7.20734 36.5092 6.97884 36.385 6.79866 36.2048C6.61847 36.0246 6.4943 35.7961 6.44114 35.5469C6.38799 35.2977 6.40812 35.0384 6.4991 34.8004V34.8004Z" stroke="white" stroke-width="2.13833" stroke-linecap="round" stroke-linejoin="round"/>
<path d="M28.2344 12.0972C28.2344 12.0972 28.2344 8.08787 32.2437 8.08787C36.2531 8.08787 36.2531 4.07849 36.2531 4.07849" stroke="white" stroke-width="2.13833" stroke-linecap="round" stroke-linejoin="round"/>
<path d="M17.2752 33.2133L9.79102 25.7291" stroke="white" stroke-width="2.13833" stroke-linecap="round" stroke-linejoin="round"/>
<path d="M24.2246 2.74207V6.75144" stroke="white" stroke-width="2.13833" stroke-linecap="round" stroke-linejoin="round"/>
<path d="M36.252 18.7795L38.9249 21.4525" stroke="white" stroke-width="2.13833" stroke-linecap="round" stroke-linejoin="round"/>
<path d="M36.252 13.4336L40.2613 12.0972" stroke="white" stroke-width="2.13833" stroke-linecap="round" stroke-linejoin="round"/>
<path d="M12.998 16.9084L26.0953 30.0057" stroke="white" stroke-width="2.13833" stroke-linecap="round" stroke-linejoin="round"/>
</svg>
