<svg width="43" height="43" viewBox="0 0 43 43" fill="none" xmlns="http://www.w3.org/2000/svg">
<path d="M21.5059 21.5825L37.5434 5.54504" stroke="white" stroke-width="2.13833" stroke-linecap="round" stroke-linejoin="round"/>
<path d="M32.8503 10.2393C30.0071 7.38753 26.1969 5.7071 22.1738 5.53059C18.1508 5.35408 14.208 6.69436 11.126 9.28613C8.04396 11.8779 6.04725 15.5323 5.53106 19.526C5.01487 23.5197 6.01682 27.5617 8.3386 30.8519C10.6604 34.1422 14.1328 36.4408 18.0685 37.293C22.0043 38.1452 26.1165 37.4887 29.5913 35.4536C33.0662 33.4185 35.6503 30.1529 36.8324 26.3034C38.0144 22.4539 37.7082 18.3008 35.9743 14.6663" stroke="white" stroke-width="2.13833" stroke-linecap="round" stroke-linejoin="round"/>
<path d="M27.17 15.9193C25.8456 14.5986 24.1004 13.7836 22.2376 13.6158C20.3748 13.448 18.5121 13.938 16.973 15.0006C15.4339 16.0633 14.3157 17.6316 13.8125 19.433C13.3094 21.2344 13.4532 23.1551 14.2189 24.8615C14.9846 26.5679 16.3238 27.9522 18.004 28.774C19.6842 29.5957 21.5991 29.8029 23.4161 29.3596C25.2332 28.9163 26.8376 27.8506 27.9506 26.3475C29.0636 24.8443 29.6149 22.9988 29.5088 21.1315" stroke="white" stroke-width="2.13833" stroke-linecap="round" stroke-linejoin="round"/>
</svg>
