<svg width="43" height="44" viewBox="0 0 43 44" fill="none" xmlns="http://www.w3.org/2000/svg">
<path d="M11.5121 34.0456C14.8336 34.0456 17.5262 31.353 17.5262 28.0315C17.5262 24.71 14.8336 22.0175 11.5121 22.0175C8.19063 22.0175 5.49805 24.71 5.49805 28.0315C5.49805 31.353 8.19063 34.0456 11.5121 34.0456Z" stroke="white" stroke-width="2.13833" stroke-linecap="round" stroke-linejoin="round"/>
<path d="M31.559 34.0456C34.8805 34.0456 37.573 31.353 37.573 28.0315C37.573 24.71 34.8805 22.0175 31.559 22.0175C28.2375 22.0175 25.5449 24.71 25.5449 28.0315C25.5449 31.353 28.2375 34.0456 31.559 34.0456Z" stroke="white" stroke-width="2.13833" stroke-linecap="round" stroke-linejoin="round"/>
<path d="M17.5254 27.3633H25.5441" stroke="white" stroke-width="2.13833" stroke-linecap="round" stroke-linejoin="round"/>
<path d="M5.49808 28.0316V12.6624C5.49587 12.1352 5.59807 11.6129 5.79878 11.1254C5.99948 10.638 6.29473 10.1951 6.66747 9.82238C7.04022 9.44963 7.48309 9.15439 7.97052 8.95368C8.45796 8.75298 8.98032 8.65078 9.50746 8.65299" stroke="white" stroke-width="2.13833" stroke-linecap="round" stroke-linejoin="round"/>
<path d="M33.5645 8.65299C34.0916 8.65078 34.6139 8.75298 35.1014 8.95368C35.5888 9.15439 36.0317 9.44963 36.4044 9.82238C36.7772 10.1951 37.0724 10.638 37.2731 11.1254C37.4738 11.6129 37.576 12.1352 37.5738 12.6624V28.0316" stroke="white" stroke-width="2.13833" stroke-linecap="round" stroke-linejoin="round"/>
</svg>
