<svg width="43" height="44" viewBox="0 0 43 44" fill="none" xmlns="http://www.w3.org/2000/svg">
<path d="M34.8703 7.31641H8.14115C7.40304 7.31641 6.80469 7.91476 6.80469 8.65286V35.382C6.80469 36.1201 7.40304 36.7185 8.14115 36.7185H34.8703C35.6084 36.7185 36.2068 36.1201 36.2068 35.382V8.65286C36.2068 7.91476 35.6084 7.31641 34.8703 7.31641Z" stroke="white" stroke-width="2.13833" stroke-linecap="round" stroke-linejoin="round"/>
<path d="M29.5254 4.64355V9.98939" stroke="white" stroke-width="2.13833" stroke-linecap="round" stroke-linejoin="round"/>
<path d="M13.4883 4.64355V9.98939" stroke="white" stroke-width="2.13833" stroke-linecap="round" stroke-linejoin="round"/>
<path d="M6.80469 15.3352H36.2068" stroke="white" stroke-width="2.13833" stroke-linecap="round" stroke-linejoin="round"/>
<path d="M15.4922 22.0175H20.1698L17.4969 25.3586C17.9368 25.3578 18.37 25.4657 18.7583 25.6725C19.1465 25.8794 19.4777 26.1788 19.7224 26.5443C19.9672 26.9099 20.1179 27.3301 20.1613 27.7679C20.2047 28.2056 20.1394 28.6473 19.9712 29.0538C19.8029 29.4602 19.537 29.8189 19.1969 30.0979C18.8568 30.3769 18.4531 30.5677 18.0217 30.6533C17.5902 30.7389 17.1442 30.7167 16.7234 30.5887C16.3025 30.4606 15.9198 30.2307 15.6091 29.9193" stroke="white" stroke-width="2.13833" stroke-linecap="round" stroke-linejoin="round"/>
<path d="M24.1797 24.0221L26.8526 22.0175V30.7044" stroke="white" stroke-width="2.13833" stroke-linecap="round" stroke-linejoin="round"/>
</svg>
