<svg width="48" height="48" viewBox="0 0 48 48" fill="none" xmlns="http://www.w3.org/2000/svg">
<path fill-rule="evenodd" clip-rule="evenodd" d="M32.2699 40.9086C32.8381 41.5113 32.8381 42.4887 32.2699 43.0914C31.7015 43.6941 30.7801 43.6941 30.2119 43.0914L25.9691 38.5914C25.4009 37.9887 25.4009 37.0113 25.9691 36.4086L30.2119 31.9086C30.7801 31.3057 31.7015 31.3057 32.2697 31.9086C32.8381 32.5113 32.8381 33.4887 32.2699 34.0914L29.0561 37.5L32.2699 40.9086ZM36.2119 34.0914C35.6435 33.4887 35.6435 32.5114 36.2119 31.9086C36.7801 31.3059 37.7015 31.3059 38.2699 31.9086L42.5125 36.4086C43.0807 37.0114 43.0807 37.9887 42.5125 38.5914L38.2699 43.0914C37.7015 43.6942 36.7801 43.6942 36.2119 43.0914C35.6435 42.4887 35.6435 41.5113 36.2119 40.9086L39.4255 37.5L36.2119 34.0914Z" fill="white"/>
<path fill-rule="evenodd" clip-rule="evenodd" d="M10.5 9C10.5 6.51471 12.5147 4.5 15 4.5H33C35.4853 4.5 37.5 6.51472 37.5 9V27C37.5 27.8284 36.8284 28.5 36 28.5H29.7426C29.3448 28.5 28.9634 28.6581 28.6819 28.9394L22.0896 35.5317C21.6332 35.9883 21.5199 36.6856 21.8086 37.2631L23.8416 41.3292C24.0741 41.7942 24.0494 42.3463 23.7761 42.7886C23.5026 43.2308 23.0199 43.5 22.5 43.5H15C12.5147 43.5 10.5 41.4854 10.5 39V9ZM19.5 7.5C18.6715 7.5 18 8.17158 18 9C18 9.82842 18.6715 10.5 19.5 10.5H28.5C29.3284 10.5 30 9.82842 30 9C30 8.17158 29.3284 7.5 28.5 7.5H19.5Z" fill="url(#paint0_linear_23_219)"/>
<defs>
<linearGradient id="paint0_linear_23_219" x1="29.8642" y1="13.2894" x2="11.1471" y2="29.9906" gradientUnits="userSpaceOnUse">
<stop offset="0.0001" stop-color="#EC2027"/>
<stop offset="0.490049" stop-color="white"/>
<stop offset="1" stop-color="#EC2027"/>
</linearGradient>
</defs>
</svg>
