<svg width="48" height="48" viewBox="0 0 48 48" fill="none" xmlns="http://www.w3.org/2000/svg">
<g clip-path="url(#clip0_23_201)">
<mask id="mask0_23_201" style="mask-type:luminance" maskUnits="userSpaceOnUse" x="0" y="0" width="48" height="48">
<path d="M48 0H0V48H48V0Z" fill="white"/>
</mask>
<g mask="url(#mask0_23_201)">
<path fill-rule="evenodd" clip-rule="evenodd" d="M33.7699 39.4086C34.3381 40.0113 34.3381 40.9887 33.7699 41.5914C33.2015 42.1941 32.2801 42.1941 31.7119 41.5914L27.4691 37.0914C26.9009 36.4887 26.9009 35.5113 27.4691 34.9086L31.7119 30.4086C32.2801 29.8057 33.2015 29.8057 33.7697 30.4086C34.3381 31.0113 34.3381 31.9887 33.7699 32.5914L30.5561 36L33.7699 39.4086ZM37.7119 32.5914C37.1435 31.9887 37.1435 31.0114 37.7119 30.4086C38.2801 29.8059 39.2015 29.8059 39.7699 30.4086L44.0125 34.9086C44.5807 35.5114 44.5807 36.4887 44.0125 37.0914L39.7699 41.5914C39.2015 42.1942 38.2801 42.1942 37.7119 41.5914C37.1435 40.9887 37.1435 40.0113 37.7119 39.4086L40.9255 36L37.7119 32.5914Z" fill="white"/>
<path fill-rule="evenodd" clip-rule="evenodd" d="M3 21C3 16.8579 3 20.25 3 18H45C45 21.75 45 16.8579 45 21V22.5C45 24.9854 42.9854 27 40.5 27H32.4854C31.2918 27 30.1472 27.4742 29.3032 28.3181L25.1186 32.5028C23.7489 33.8724 23.4095 35.9648 24.2757 37.6973L25.3416 39.8292C25.5741 40.2942 25.5493 40.8463 25.2759 41.2885C25.0026 41.7307 24.5199 42 24 42H10.5C6.35787 42 3 38.6421 3 34.5V21Z" fill="url(#paint0_linear_23_201)"/>
<path fill-rule="evenodd" clip-rule="evenodd" d="M10.5 6C6.35787 6 3 9.35787 3 13.5V15H45V13.5C45 9.35787 41.6421 6 37.5 6H10.5ZM9 12C9.82842 12 10.5 11.3284 10.5 10.5C10.5 9.67158 9.82842 9 9 9C8.17158 9 7.5 9.67158 7.5 10.5C7.5 11.3284 8.17158 12 9 12ZM13.5 12C14.3284 12 15 11.3284 15 10.5C15 9.67158 14.3284 9 13.5 9C12.6716 9 12 9.67158 12 10.5C12 11.3284 12.6716 12 13.5 12ZM19.5 10.5C19.5 11.3284 18.8285 12 18 12C17.1715 12 16.5 11.3284 16.5 10.5C16.5 9.67158 17.1715 9 18 9C18.8285 9 19.5 9.67158 19.5 10.5Z" fill="url(#paint1_linear_23_201)"/>
</g>
</g>
<defs>
<linearGradient id="paint0_linear_23_201" x1="33.122" y1="23.4089" x2="24.5311" y2="42.7861" gradientUnits="userSpaceOnUse">
<stop stop-color="#EC2027"/>
<stop offset="0.5" stop-color="white"/>
<stop offset="1" stop-color="#EC2027"/>
</linearGradient>
<linearGradient id="paint1_linear_23_201" x1="33.122" y1="8.02833" x2="31.7153" y2="16.4892" gradientUnits="userSpaceOnUse">
<stop stop-color="#EC2027"/>
<stop offset="0.5" stop-color="white"/>
<stop offset="1" stop-color="#EC2027"/>
</linearGradient>
<clipPath id="clip0_23_201">
<rect width="48" height="48" fill="white"/>
</clipPath>
</defs>
</svg>
