<svg width="307" height="221" viewBox="0 0 307 221" fill="none" xmlns="http://www.w3.org/2000/svg">
<rect width="306.851" height="220.248" transform="matrix(-1 0 0 1 307.004 0)" fill="white" fill-opacity="0.1"/>
<path d="M27.5317 146.954V128.607H40.49V130.634H29.8411V136.434H39.5149V138.384H29.8411V144.824H40.7979V146.954H27.5317ZM41.9288 146.954L46.9325 140L42.519 133.688H44.931L48.0872 138.512H48.1385L51.423 133.688H53.7067L49.3445 139.769L54.5278 146.954H52.0901L48.1642 141.258H48.1128L44.2638 146.954H41.9288ZM56.0913 151.214V133.688H58.1698V135.561H58.2211C59.2988 134.107 60.7187 133.38 62.4806 133.38C64.1913 133.38 65.5684 134.004 66.6119 135.253C67.6554 136.485 68.1772 138.187 68.1772 140.36C68.1772 142.498 67.664 144.2 66.6376 145.466C65.6112 146.715 64.1999 147.339 62.4037 147.339C60.6246 147.339 59.2304 146.689 58.2211 145.389H58.1698V151.214H56.0913ZM62.2497 145.594C63.4814 145.594 64.4222 145.115 65.0723 144.157C65.7224 143.199 66.0474 141.942 66.0474 140.385C66.0474 138.828 65.7224 137.571 65.0723 136.613C64.4222 135.638 63.4899 135.151 62.2754 135.151C60.8897 135.151 59.8377 135.647 59.1192 136.639C58.4007 137.614 58.0415 138.863 58.0415 140.385C58.0415 141.942 58.3836 143.199 59.0679 144.157C59.7521 145.115 60.8127 145.594 62.2497 145.594ZM70.3264 146.954V128.607H72.4048V146.954H70.3264ZM85.6266 145.312C84.4633 146.646 82.9152 147.313 80.9821 147.313C79.049 147.313 77.4923 146.646 76.312 145.312C75.1487 143.978 74.5671 142.318 74.5671 140.334C74.5671 138.35 75.1487 136.69 76.312 135.356C77.4923 134.022 79.049 133.354 80.9821 133.354C82.9152 133.354 84.4633 134.022 85.6266 135.356C86.7898 136.69 87.3714 138.35 87.3714 140.334C87.3714 142.318 86.7898 143.978 85.6266 145.312ZM77.8003 144.106C78.553 145.081 79.6136 145.569 80.9821 145.569C82.3506 145.569 83.4027 145.081 84.1383 144.106C84.8739 143.114 85.2417 141.856 85.2417 140.334C85.2417 138.794 84.8653 137.537 84.1126 136.562C83.377 135.57 82.3335 135.074 80.9821 135.074C79.6136 135.074 78.553 135.57 77.8003 136.562C77.0647 137.554 76.6969 138.811 76.6969 140.334C76.6969 141.856 77.0647 143.114 77.8003 144.106ZM91.5227 133.688V135.895H91.5741C92.0017 135.193 92.5577 134.629 93.242 134.201C93.9262 133.756 94.6875 133.534 95.5257 133.534C95.8336 133.534 96.1159 133.585 96.3725 133.688V135.689H96.2955C96.0389 135.604 95.731 135.561 95.3717 135.561C94.3111 135.561 93.4045 135.937 92.6518 136.69C91.8991 137.426 91.5227 138.392 91.5227 139.59V146.954H89.4443V133.688H91.5227ZM103.41 147.313C101.442 147.313 99.877 146.655 98.7138 145.338C97.5676 144.003 96.9945 142.335 96.9945 140.334C96.9945 138.367 97.5762 136.716 98.7394 135.382C99.9198 134.03 101.434 133.354 103.281 133.354C105.231 133.354 106.737 134.039 107.797 135.407C108.858 136.759 109.388 138.563 109.388 140.821H99.1243C99.2099 142.224 99.6204 143.37 100.356 144.26C101.109 145.132 102.127 145.569 103.41 145.569C105.394 145.569 106.617 144.662 107.079 142.849H109.106C108.798 144.268 108.148 145.372 107.156 146.159C106.164 146.929 104.915 147.313 103.41 147.313ZM106.053 136.126C105.385 135.373 104.462 134.997 103.281 134.997C102.101 134.997 101.16 135.39 100.459 136.177C99.7744 136.964 99.3467 137.99 99.1756 139.256H107.156C107.087 137.922 106.72 136.878 106.053 136.126ZM115.505 146.954V133.688H117.584V135.587H117.635C118.063 134.92 118.619 134.389 119.303 133.996C119.987 133.585 120.731 133.38 121.535 133.38C123.263 133.38 124.418 134.167 124.999 135.741H125.051C125.461 135.005 126.034 134.432 126.77 134.022C127.506 133.594 128.284 133.38 129.105 133.38C130.32 133.38 131.295 133.756 132.03 134.509C132.766 135.245 133.134 136.288 133.134 137.64V146.954H131.055V137.742C131.055 136.938 130.816 136.305 130.337 135.843C129.875 135.364 129.302 135.125 128.617 135.125C127.745 135.125 126.984 135.467 126.334 136.151C125.684 136.836 125.359 137.682 125.359 138.692V146.954H123.28V137.742C123.28 136.938 123.066 136.305 122.639 135.843C122.228 135.364 121.681 135.125 120.996 135.125C120.141 135.125 119.354 135.476 118.636 136.177C117.934 136.861 117.584 137.699 117.584 138.692V146.954H115.505ZM146.193 145.312C145.03 146.646 143.482 147.313 141.549 147.313C139.616 147.313 138.059 146.646 136.879 145.312C135.715 143.978 135.134 142.318 135.134 140.334C135.134 138.35 135.715 136.69 136.879 135.356C138.059 134.022 139.616 133.354 141.549 133.354C143.482 133.354 145.03 134.022 146.193 135.356C147.356 136.69 147.938 138.35 147.938 140.334C147.938 142.318 147.356 143.978 146.193 145.312ZM138.367 144.106C139.12 145.081 140.18 145.569 141.549 145.569C142.917 145.569 143.969 145.081 144.705 144.106C145.44 143.114 145.808 141.856 145.808 140.334C145.808 138.794 145.432 137.537 144.679 136.562C143.944 135.57 142.9 135.074 141.549 135.074C140.18 135.074 139.12 135.57 138.367 136.562C137.631 137.554 137.264 138.811 137.264 140.334C137.264 141.856 137.631 143.114 138.367 144.106ZM152.089 133.688V135.895H152.141C152.568 135.193 153.124 134.629 153.809 134.201C154.493 133.756 155.254 133.534 156.092 133.534C156.4 133.534 156.683 133.585 156.939 133.688V135.689H156.862C156.606 135.604 156.298 135.561 155.938 135.561C154.878 135.561 153.971 135.937 153.218 136.69C152.466 137.426 152.089 138.392 152.089 139.59V146.954H150.011V133.688H152.089ZM163.976 147.313C162.009 147.313 160.444 146.655 159.28 145.338C158.134 144.003 157.561 142.335 157.561 140.334C157.561 138.367 158.143 136.716 159.306 135.382C160.486 134.03 162 133.354 163.848 133.354C165.798 133.354 167.303 134.039 168.364 135.407C169.425 136.759 169.955 138.563 169.955 140.821H159.691C159.776 142.224 160.187 143.37 160.923 144.26C161.675 145.132 162.693 145.569 163.976 145.569C165.961 145.569 167.184 144.662 167.646 142.849H169.673C169.365 144.268 168.715 145.372 167.723 146.159C166.73 146.929 165.482 147.313 163.976 147.313ZM166.619 136.126C165.952 135.373 165.028 134.997 163.848 134.997C162.667 134.997 161.727 135.39 161.025 136.177C160.341 136.964 159.913 137.99 159.742 139.256H167.723C167.654 137.922 167.286 136.878 166.619 136.126Z" fill="white"/>
<path d="M31.8711 176.412H56.1055M56.1055 176.412L45.7784 165.81M56.1055 176.412L45.7784 187.015" stroke="white" stroke-width="2.13833"/>
</svg>
